<?xml version="1.0" encoding="UTF-8" standalone="no"?>
<!-- Created with Inkscape (http://www.inkscape.org/) -->

<svg
   width="210mm"
   height="297mm"
   viewBox="0 0 210 297"
   version="1.1"
   id="svg5"
   xml:space="preserve"
   inkscape:version="1.2.2 (732a01da63, 2022-12-09)"
   sodipodi:docname="Swinka.svg"
   xmlns:inkscape="http://www.inkscape.org/namespaces/inkscape"
   xmlns:sodipodi="http://sodipodi.sourceforge.net/DTD/sodipodi-0.dtd"
   xmlns="http://www.w3.org/2000/svg"
   xmlns:svg="http://www.w3.org/2000/svg"><sodipodi:namedview
     id="namedview7"
     pagecolor="#ffffff"
     bordercolor="#000000"
     borderopacity="0.25"
     inkscape:showpageshadow="2"
     inkscape:pageopacity="0.0"
     inkscape:pagecheckerboard="0"
     inkscape:deskcolor="#d1d1d1"
     inkscape:document-units="mm"
     showgrid="false"
     inkscape:zoom="2"
     inkscape:cx="513"
     inkscape:cy="505.25"
     inkscape:window-width="1920"
     inkscape:window-height="991"
     inkscape:window-x="-9"
     inkscape:window-y="-9"
     inkscape:window-maximized="1"
     inkscape:current-layer="layer1" /><defs
     id="defs2" /><g
     inkscape:label="Warstwa 1"
     inkscape:groupmode="layer"
     id="layer1"><path
       id="path5099"
       style="fill:#00749a;fill-opacity:1;stroke:none;stroke-width:0"
       d="M 79.038586 102.19066 A 2.4037371 2.2930386 0 0 0 76.635116 104.48354 A 2.4037371 2.2930386 0 0 0 76.884196 105.49899 L 83.548905 119.04028 L 86.546139 117.71271 L 82.742753 109.9845 L 87.243254 109.9845 L 87.243254 107.42858 L 95.707853 109.19127 L 96.491268 105.78579 L 79.817867 102.31417 L 79.816317 102.31365 A 2.4037371 2.2930386 0 0 0 79.038586 102.19066 z " /><path
       id="rect5127"
       style="fill:#00749a;fill-opacity:1;stroke:none;stroke-width:0"
       d="M 68.427865 122.28608 C 67.40435 122.28608 66.580432 123.10999 66.580432 124.13351 L 66.580432 132.73918 C 66.580432 133.43581 66.962173 134.03971 67.528695 134.35459 L 67.528695 134.35511 L 67.539547 134.36079 C 67.547044 134.36489 67.554724 134.36868 67.562284 134.37268 L 73.477686 137.50479 L 74.932894 135.2181 L 73.686458 134.55819 C 74.554155 134.40566 75.20988 133.65192 75.20988 132.73918 L 75.20988 124.13351 C 75.20988 123.10999 74.385445 122.28608 73.36193 122.28608 L 68.427865 122.28608 z " /><path
       id="rect5133"
       style="fill:#025e76;fill-opacity:1;stroke:none;stroke-width:0"
       d="M 85.984932 149.48958 C 84.961418 149.48958 84.1375 150.3135 84.1375 151.33702 L 84.1375 158.88694 C 84.1375 159.91046 84.961418 160.73437 85.984932 160.73437 L 93.931734 160.73437 C 94.707042 160.73437 95.367317 160.26134 95.642224 159.58716 L 99.203247 152.44599 L 96.776522 151.23625 L 95.779167 153.23612 L 95.779167 151.33702 C 95.779167 150.3135 94.955249 149.48958 93.931734 149.48958 L 85.984932 149.48958 z " /><path
       id="rect5133-8"
       style="fill:#025e76;fill-opacity:1;stroke:none;stroke-width:0"
       d="M 132.20072 130.85868 A 2.2386343 12.702181 23.242442 0 0 125.63212 140.81983 A 2.2386343 12.702181 23.242442 0 0 124.48284 143.55661 A 2.2386342 12.702181 23.49724 0 0 122.71912 147.18223 A 2.2386342 12.702181 23.49724 0 0 121.87628 149.13302 L 120.61589 149.13302 C 120.27649 148.40475 119.53933 147.90208 118.68009 147.90208 L 111.30897 147.90208 C 110.12591 147.90208 109.1737 148.85429 109.1737 150.03735 L 109.1737 158.76447 C 109.1737 159.94753 110.12591 160.89974 111.30897 160.89974 L 118.68009 160.89974 C 119.21815 160.89974 119.70785 160.70236 120.08259 160.37626 A 2.2386342 12.702181 23.49724 0 0 126.06672 150.68073 A 2.2386342 12.702181 23.49724 0 0 126.65015 149.35006 L 127.78031 146.88561 A 2.2386343 12.702181 23.242442 0 0 128.99523 144.30334 A 2.2386343 12.702181 23.242442 0 0 132.46427 130.98735 A 2.2386343 12.702181 23.242442 0 0 132.20072 130.85868 z " /><path
       id="path354"
       style="display:inline;fill:#025e76;fill-opacity:1;stroke:none;stroke-width:0"
       d="m 78.26344,146.35903 a 30.862955,26.032228 0 0 0 23.62905,9.29762 30.862955,26.032228 0 0 0 30.86271,-26.032 30.862955,26.032228 0 0 0 -4.34702,-13.31805 23.276341,38.522183 59.640119 0 1 -0.0765,0.17776 23.276341,38.522183 59.640119 0 1 -0.28215,0.61754 23.276341,38.522183 59.640119 0 1 -0.29817,0.61856 23.276341,38.522183 59.640119 0 1 -0.31368,0.61857 23.276341,38.522183 59.640119 0 1 -0.3297,0.61908 23.276341,38.522183 59.640119 0 1 -0.34519,0.61857 23.276341,38.522183 59.640119 0 1 -0.36019,0.61805 23.276341,38.522183 59.640119 0 1 -0.37569,0.61702 23.276341,38.522183 59.640119 0 1 -0.39119,0.61598 23.276341,38.522183 59.640119 0 1 -0.40514,0.61495 23.276341,38.522183 59.640119 0 1 -0.42065,0.61288 23.276341,38.522183 59.640119 0 1 -0.4346,0.61082 23.276341,38.522183 59.640119 0 1 -0.44906,0.60823 23.276341,38.522183 59.640119 0 1 -0.46251,0.60565 23.276341,38.522183 59.640119 0 1 -0.47697,0.60306 23.276341,38.522183 59.640119 0 1 -0.48989,0.59945 23.276341,38.522183 59.640119 0 1 -0.50385,0.59634 23.276341,38.522183 59.640119 0 1 -0.51625,0.59222 23.276341,38.522183 59.640119 0 1 -0.52968,0.58807 23.276341,38.522183 59.640119 0 1 -0.54209,0.58395 23.276341,38.522183 59.640119 0 1 -0.55397,0.57877 23.276341,38.522183 59.640119 0 1 -0.56637,0.57413 23.276341,38.522183 59.640119 0 1 -0.57774,0.56896 23.276341,38.522183 59.640119 0 1 -0.58963,0.56327 23.276341,38.522183 59.640119 0 1 -0.60048,0.55759 23.276341,38.522183 59.640119 0 1 -0.61133,0.55139 23.276341,38.522183 59.640119 0 1 -0.62219,0.54518 23.276341,38.522183 59.640119 0 1 -0.632,0.53847 23.276341,38.522183 59.640119 0 1 -0.64234,0.53175 23.276341,38.522183 59.640119 0 1 -0.65164,0.52452 23.276341,38.522183 59.640119 0 1 -0.66146,0.51676 23.276341,38.522183 59.640119 0 1 -0.67024,0.50953 23.276341,38.522183 59.640119 0 1 -0.67851,0.50178 23.276341,38.522183 59.640119 0 1 -0.6873,0.49299 23.276341,38.522183 59.640119 0 1 -0.69505,0.48524 23.276341,38.522183 59.640119 0 1 -0.7028,0.47646 23.276341,38.522183 59.640119 0 1 -0.71055,0.46767 23.276341,38.522183 59.640119 0 1 -0.71675,0.45837 23.276341,38.522183 59.640119 0 1 -0.72399,0.44907 23.276341,38.522183 59.640119 0 1 -0.73018,0.43925 23.276341,38.522183 59.640119 0 1 -0.73588,0.42995 23.276341,38.522183 59.640119 0 1 -0.74104,0.42013 23.276341,38.522183 59.640119 0 1 -0.74672,0.40979 23.276341,38.522183 59.640119 0 1 -2.23552,1.15032 23.276341,38.522183 59.640119 0 1 -2.26808,1.05523 23.276341,38.522183 59.640119 0 1 -2.291335,0.9555 23.276341,38.522183 59.640119 0 1 -2.303736,0.85059 23.276341,38.522183 59.640119 0 1 -2.307352,0.74311 23.276341,38.522183 59.640119 0 1 -2.300635,0.632 23.276341,38.522183 59.640119 0 1 -2.283582,0.51832 23.276341,38.522183 59.640119 0 1 -2.257743,0.40256 23.276341,38.522183 59.640119 0 1 -2.22157,0.28473 23.276341,38.522183 59.640119 0 1 -2.176094,0.16588 23.276341,38.522183 59.640119 0 1 -2.121318,0.0465 23.276341,38.522183 59.640119 0 1 -2.057239,-0.0734 23.276341,38.522183 59.640119 0 1 -0.06925,-0.007 z" /><path
       id="path6565"
       style="display:inline;fill:#00749a;fill-opacity:1;stroke:none;stroke-width:0"
       d="m 78.263515,146.3603 a 23.276916,38.522771 59.63908 0 0 0.06925,0.007 23.276916,38.522771 59.63908 0 0 2.057261,0.0734 23.276916,38.522771 59.63908 0 0 2.12134,-0.0465 23.276916,38.522771 59.63908 0 0 2.176116,-0.16589 23.276916,38.522771 59.63908 0 0 2.221593,-0.28473 23.276916,38.522771 59.63908 0 0 2.257766,-0.40258 23.276916,38.522771 59.63908 0 0 2.283606,-0.51833 23.276916,38.522771 59.63908 0 0 2.300659,-0.63202 23.276916,38.522771 59.63908 0 0 2.307376,-0.74313 23.276916,38.522771 59.63908 0 0 2.303759,-0.85062 23.276916,38.522771 59.63908 0 0 2.291359,-0.95553 23.276916,38.522771 59.63908 0 0 2.2681,-1.05526 23.276916,38.522771 59.63908 0 0 2.23554,-1.15035 23.276916,38.522771 59.63908 0 0 0.74673,-0.4098 23.276916,38.522771 59.63908 0 0 0.74105,-0.42015 23.276916,38.522771 59.63908 0 0 0.73589,-0.42996 23.276916,38.522771 59.63908 0 0 0.73018,-0.43926 23.276916,38.522771 59.63908 0 0 0.724,-0.44908 23.276916,38.522771 59.63908 0 0 0.71676,-0.45839 23.276916,38.522771 59.63908 0 0 0.71056,-0.46768 23.276916,38.522771 59.63908 0 0 0.7028,-0.47648 23.276916,38.522771 59.63908 0 0 0.69506,-0.48525 23.276916,38.522771 59.63908 0 0 0.68731,-0.49301 23.276916,38.522771 59.63908 0 0 0.67851,-0.50179 23.276916,38.522771 59.63908 0 0 0.67025,-0.50955 23.276916,38.522771 59.63908 0 0 0.66147,-0.51677 23.276916,38.522771 59.63908 0 0 0.65164,-0.52454 23.276916,38.522771 59.63908 0 0 0.64235,-0.53176 23.276916,38.522771 59.63908 0 0 0.63201,-0.53849 23.276916,38.522771 59.63908 0 0 0.62219,-0.54519 23.276916,38.522771 59.63908 0 0 0.61134,-0.55141 23.276916,38.522771 59.63908 0 0 0.60049,-0.55761 23.276916,38.522771 59.63908 0 0 0.58963,-0.56328 23.276916,38.522771 59.63908 0 0 0.57775,-0.56898 23.276916,38.522771 59.63908 0 0 0.56637,-0.57415 23.276916,38.522771 59.63908 0 0 0.55398,-0.57878 23.276916,38.522771 59.63908 0 0 0.5421,-0.58397 23.276916,38.522771 59.63908 0 0 0.52968,-0.58809 23.276916,38.522771 59.63908 0 0 0.51626,-0.59224 23.276916,38.522771 59.63908 0 0 0.50385,-0.59635 23.276916,38.522771 59.63908 0 0 0.4899,-0.59947 23.276916,38.522771 59.63908 0 0 0.47697,-0.60308 23.276916,38.522771 59.63908 0 0 0.46252,-0.60567 23.276916,38.522771 59.63908 0 0 0.44906,-0.60825 23.276916,38.522771 59.63908 0 0 0.43461,-0.61083 23.276916,38.522771 59.63908 0 0 0.42065,-0.6129 23.276916,38.522771 59.63908 0 0 0.40514,-0.61497 23.276916,38.522771 59.63908 0 0 0.3912,-0.616 23.276916,38.522771 59.63908 0 0 0.37569,-0.61704 23.276916,38.522771 59.63908 0 0 0.3602,-0.61807 23.276916,38.522771 59.63908 0 0 0.34519,-0.61858 23.276916,38.522771 59.63908 0 0 0.3297,-0.6191 23.276916,38.522771 59.63908 0 0 0.31369,-0.61859 23.276916,38.522771 59.63908 0 0 0.29817,-0.61858 23.276916,38.522771 59.63908 0 0 0.28215,-0.61756 23.276916,38.522771 59.63908 0 0 0.0765,-0.17776 30.863274,26.033 0 0 0 -26.51596,-12.71485 30.863274,26.033 0 0 0 -30.863033,26.03329 30.863274,26.033 0 0 0 7.233742,16.73488 z" /><ellipse
       style="display:inline;fill:#ffffff;fill-opacity:1;stroke:none;stroke-width:0"
       id="path1793"
       cx="84.895477"
       cy="122.69141"
       rx="3.6677711"
       ry="3.7124999" /><ellipse
       style="fill:#ffffff;fill-opacity:1;stroke:none;stroke-width:0"
       id="path6952"
       cx="97.566734"
       cy="110.6454"
       rx="1.7188771"
       ry="1.6545655" /><ellipse
       style="fill:#ffffff;fill-opacity:1;stroke:none;stroke-width:0"
       id="path6952-3"
       cx="114.10156"
       cy="112.67943"
       rx="1.7188771"
       ry="1.6545655" /><path
       style="fill:#ffffff;fill-opacity:1;stroke:none;stroke-width:0"
       d="m 97.565103,108.9918 c 9.425777,0.0165 16.975547,2.08771 16.975547,2.08771 0,0 0.52829,3.52641 -0.75328,3.20395 -1.28158,-0.32246 -0.16537,-2.05052 -0.16537,-2.05052 l -15.941142,-2.01745 z"
       id="path7056" /><path
       style="fill:#ffffff;fill-opacity:1;stroke:none;stroke-width:0"
       d="m 97.614712,112.28255 c 4.167188,-0.56224 16.104448,2.00918 16.104448,2.00918 l 0.33477,-2.22562 -15.738837,-2.05797 z"
       id="path7080" /><path
       style="fill:#ffffff;fill-opacity:1;stroke:none;stroke-width:0"
       d="m 97.660284,112.29997 c 1.303774,-0.13447 4.162726,0.0468 4.162726,0.0468 l -1.73642,-0.81851 z"
       id="path7084" /><path
       style="fill:#025e76;fill-opacity:1;stroke:none;stroke-width:0"
       d="m 130.84514,121.13991 c 8.20851,-2.59585 10.50035,1.26285 10.50035,1.26285"
       id="path7830" /><path
       style="fill:#025e76;fill-opacity:1;stroke:none;stroke-width:0"
       d="m 141.32057,122.38633 c 2.836,4.2416 -0.45475,6.30866 -0.45475,6.30866"
       id="path7832" /><path
       style="fill:#025e76;fill-opacity:1;stroke:none;stroke-width:0"
       d="m 140.89062,128.68672 c -4.15065,2.19935 -6.84609,-0.92604 -6.84609,-0.92604"
       id="path7834" /><path
       style="fill:#025e76;fill-opacity:1;stroke:none;stroke-width:0"
       d="m 134.10241,127.79375 c -2.57969,-2.66237 -0.98392,-4.0597 -0.98392,-4.0597"
       id="path7836" /><path
       style="fill:#025e76;fill-opacity:1;stroke:none;stroke-width:0"
       d="m 138.68301,125.71015 c 1.14101,-1.78593 -2.80293,-2.02571 -2.80293,-2.02571 l 0.30592,-1.4056 3.91914,3.11712 -1.88515,1.59577 z"
       id="path7838" /><path
       style="fill:#025e76;fill-opacity:1;stroke:none;stroke-width:0"
       d="m 138.66647,125.74323 c -0.77721,1.43867 -2.79466,-2.09186 -2.79466,-2.09186 l -0.93431,1.15755 1.66191,1.95957 1.79421,-0.0496 z"
       id="path7840" /><path
       style="fill:#025e76;fill-opacity:1;stroke:none;stroke-width:0"
       d="m 135.93746,123.60422 -0.11401,0.16955 -0.93837,-0.29817 1.01145,-0.45603 0.21047,0.15786 -0.15493,0.42971 z"
       id="path7842" /><path
       style="fill:#025e76;fill-opacity:1;stroke:none;stroke-width:0"
       d="m 132.40742,120.78229 c 0.77721,-5.83737 3.37344,-4.63021 3.37344,-4.63021 l -1.68672,4.86172 z"
       id="path7844" /><path
       style="fill:#025e76;fill-opacity:1;stroke:none;stroke-width:0"
       d="m 135.89653,120.16939 c 1.61364,-3.90548 -0.34512,-4.08345 -0.34512,-4.08345 l -0.0848,0.29455 -2.01398,3.98768 0.37418,0.98222 1.48502,0.22216 z"
       id="path7846" /><path
       style="fill:#025e76;fill-opacity:1;stroke:none;stroke-width:0"
       d="m 132.8043,125.47864 -2.31511,-0.21497 0.44649,-2.84427 -0.0796,-1.27951 0.6873,-0.0724 2.05466,0.3266 z"
       id="path7848" /><path
       style="fill:#025e76;fill-opacity:1;stroke:none;stroke-width:0"
       d="m 134.05195,127.76694 -0.66942,-0.8229 -0.60804,-1.79926 0.0351,-2.6017 0.70158,-1.3564 4.34981,0.28064 3.22728,0.77174 0.25714,0.16277 0.46198,0.83698 -0.78445,5.28254 -0.13642,0.16743 -1.09141,0.40928 -5.59345,-1.2547 2.98483,-1.62058 1.35599,0.10749 0.52089,-0.5209 0.14056,-0.51263 -0.14056,-0.50436 -0.68626,-0.69453 -1.78594,-0.7276 -0.81855,0.0331 0.0992,0.39687 0.0579,1.15756 0.58704,1.24023 0.39688,0.0413 z"
       id="path8037" /><path
       style="fill:#025e76;fill-opacity:1;stroke:none;stroke-width:0"
       d="m 134.06107,127.77204 -0.0227,-0.0393 2.42531,-1.48884 0.10524,0.43848 -2.23337,1.19269 z"
       id="path8039" /></g></svg>
